<?xml version="1.0" encoding="utf-8"?>
<!-- Generator: Adobe Illustrator 16.0.4, SVG Export Plug-In . SVG Version: 6.00 Build 0)  -->
<!DOCTYPE svg PUBLIC "-//W3C//DTD SVG 1.1//EN" "http://www.w3.org/Graphics/SVG/1.1/DTD/svg11.dtd">
<svg version="1.1"
	 id="Layer_1" image-rendering="auto" text-rendering="auto" color-rendering="auto" shape-rendering="auto" color-interpolation="auto"
	 xmlns="http://www.w3.org/2000/svg" xmlns:xlink="http://www.w3.org/1999/xlink" x="0px" y="0px" width="45.838px" height="12px"
	 viewBox="171.316 198.834 45.838 12" enable-background="new 171.316 198.834 45.838 12" xml:space="preserve">
<g>
	<path d="M176.464,201.408c0,0.318-0.155,0.478-0.468,0.478c-0.162,0-0.792-0.325-1.891-0.974c-0.443-0.269-1.107-0.668-1.994-1.198
		c-0.163-0.094-0.244-0.225-0.244-0.394c0-0.324,0.156-0.486,0.468-0.486c0.162,0,0.793,0.324,1.892,0.974
		c0.442,0.268,1.106,0.668,1.993,1.198C176.383,201.099,176.464,201.233,176.464,201.408z M176.464,204.797
		c0,0.312-0.155,0.468-0.468,0.468h-4.212c-0.312,0-0.468-0.156-0.468-0.468c0-0.312,0.156-0.469,0.468-0.469h4.212
		C176.309,204.328,176.464,204.484,176.464,204.797z M176.464,208.26c0,0.169-0.081,0.299-0.243,0.393
		c-0.442,0.27-1.107,0.668-1.993,1.199c-1.099,0.655-1.729,0.982-1.892,0.982c-0.312,0-0.468-0.162-0.468-0.486
		c0-0.169,0.082-0.3,0.244-0.394c0.443-0.269,1.108-0.668,1.994-1.198c1.099-0.655,1.729-0.982,1.891-0.982
		C176.309,207.773,176.464,207.936,176.464,208.26z"/>
</g>
<g transform="translate(435)">
	<path d="M-218.398,199.32c0,0.169-0.081,0.3-0.244,0.394c-0.442,0.269-1.106,0.668-1.993,1.198
		c-1.098,0.648-1.729,0.974-1.891,0.974c-0.312,0-0.468-0.159-0.468-0.478c0-0.175,0.081-0.31,0.243-0.402
		c0.443-0.269,1.107-0.668,1.994-1.198c1.098-0.649,1.728-0.974,1.891-0.974C-218.555,198.834-218.398,198.996-218.398,199.32z
		 M-217.846,204.797c0,0.312-0.156,0.468-0.469,0.468h-4.212c-0.312,0-0.468-0.156-0.468-0.468c0-0.312,0.156-0.469,0.468-0.469
		h4.212C-218.002,204.328-217.846,204.484-217.846,204.797z M-218.398,210.348c0,0.324-0.156,0.486-0.468,0.486
		c-0.163,0-0.793-0.327-1.891-0.982c-0.444-0.27-1.108-0.668-1.994-1.199c-0.162-0.094-0.243-0.224-0.243-0.393
		c0-0.324,0.156-0.486,0.468-0.486c0.162,0,0.793,0.327,1.891,0.982c0.442,0.269,1.107,0.668,1.993,1.198
		C-218.479,210.048-218.398,210.179-218.398,210.348z"/>
</g>
<g>
	<path d="M180.174,203.039l-0.897-1.679h-0.066l0.167,1.679v7.612h-1.297v-11.817h0.73l5.568,7.762l0.864,1.596h0.083l-0.183-1.596
		v-7.579h1.296v11.817h-0.73L180.174,203.039z"/>
	<path d="M189.266,199.017h6.332v1.229h-4.953v3.807h4.537v1.229h-4.537v4.14h5.036v1.229h-6.415V199.017z"/>
	<path d="M200.451,206.812l0.266,1.927h0.017l0.282-1.961l2.394-7.762h0.665l2.41,7.796l0.289,1.927h0.017l0.306-1.961l1.965-7.762
		h1.329l-3.241,11.817h-0.764l-2.36-7.795l-0.3-1.762h-0.082l-0.3,1.778l-2.36,7.778h-0.765l-3.324-11.817h1.463L200.451,206.812z"
		/>
</g>
</svg>
